<?xml version="1.0" encoding="UTF-8"?>
<svg width="792px" height="612px" viewBox="0 0 792 612" version="1.1" xmlns="http://www.w3.org/2000/svg" xmlns:xlink="http://www.w3.org/1999/xlink">
    <title>Architecture_design_02</title>
    <g id="Architecture_design_02" stroke="none" stroke-width="1" fill="none" fill-rule="evenodd">
        <path id="Line-3" d="M322,96.5 L329,110.5 L323,110.5 L323,147 L321,147 L321,110.5 L315,110.5 L322,96.5 Z" fill="#700845" fill-rule="nonzero"></path>
        <path id="Line-3-Copy" d="M122,94.5 L129,108.5 L123,108.5 L123,145 L121,145 L121,108.5 L115,108.5 L122,94.5 Z" fill="#700845" fill-rule="nonzero"></path>
        <g id="ExternalModule" transform="translate(50.000000, 61.000000)">
            <rect id="Background" stroke="#700845" fill="#E0108B" x="0" y="0" width="149" height="34" rx="4"></rect>
            <text id="Label" font-family="AndaleMono, Andale Mono" font-size="16" font-weight="normal" letter-spacing="-0.64" fill="#FFFFFF">
                <tspan x="16.2498438" y="23">BrowserModule</tspan>
            </text>
        </g>
        <g id="ExternalModule" transform="translate(253.500000, 61.000000)">
            <rect id="Background" stroke="#700845" fill="#E0108B" x="0" y="0" width="140" height="34" rx="4"></rect>
            <text id="Label" font-family="AndaleMono, Andale Mono" font-size="16" font-weight="normal" letter-spacing="-0.64" fill="#FFFFFF">
                <tspan x="16.230625" y="23">RouterModule</tspan>
            </text>
        </g>
        <g id="Module" transform="translate(65.000000, 146.000000)">
            <rect id="Background" stroke="#174239" fill="#2E8471" x="0" y="0" width="113" height="34" rx="4"></rect>
            <text id="Label" font-family="AndaleMono, Andale Mono" font-size="16" font-weight="normal" letter-spacing="-0.64" fill="#FFFFFF">
                <tspan x="16.1729688" y="23">AppModule</tspan>
            </text>
        </g>
        <g id="Module" transform="translate(234.000000, 146.000000)">
            <rect id="Background" stroke="#174239" fill="#2E8471" x="0" y="0" width="176" height="34" rx="4"></rect>
            <text id="Label" font-family="AndaleMono, Andale Mono" font-size="16" font-weight="normal" letter-spacing="-0.64" fill="#FFFFFF">
                <tspan x="16.3075" y="23">AppRoutingModule</tspan>
            </text>
        </g>
        <g id="Module-Copy" transform="translate(351.500000, 236.000000)">
            <rect id="Background" stroke="#174239" fill="#2E8471" x="0" y="0" width="131" height="34" rx="4"></rect>
            <text id="Label" font-family="AndaleMono, Andale Mono" font-size="16" font-weight="normal" letter-spacing="-0.64" fill="#FFFFFF">
                <tspan x="16.2114063" y="23">TimerModule</tspan>
            </text>
        </g>
        <g id="Module" transform="translate(350.000000, 476.000000)">
            <rect id="Background" stroke="#174239" fill="#2E8471" x="0" y="0" width="158" height="34" rx="4"></rect>
            <text id="Label" font-family="AndaleMono, Andale Mono" font-size="16" font-weight="normal" letter-spacing="-0.64" fill="#FFFFFF">
                <tspan x="16.2690625" y="23">SettingsModule</tspan>
            </text>
        </g>
        <g id="Module" transform="translate(350.000000, 409.000000)">
            <rect id="Background" stroke="#174239" fill="#2E8471" x="0" y="0" width="140" height="34" rx="4"></rect>
            <text id="Label" font-family="AndaleMono, Andale Mono" font-size="16" font-weight="normal" letter-spacing="-0.64" fill="#FFFFFF">
                <tspan x="16.230625" y="23">SharedModule</tspan>
            </text>
        </g>
        <g id="Component" transform="translate(47.000000, 220.000000)">
            <rect id="Background" stroke="#254770" fill="#4A90E2" x="0" y="0" width="147" height="34" rx="4"></rect>
            <text id="Label" font-family="AndaleMono, Andale Mono" font-size="16" font-weight="normal" letter-spacing="-0.64" fill="#FFFFFF">
                <tspan x="19.730625" y="23">AppComponent</tspan>
            </text>
        </g>
        <g id="Component" transform="translate(542.000000, 476.000000)">
            <rect id="Background" stroke="#254770" fill="#4A90E2" x="0" y="0" width="185" height="34" rx="4"></rect>
            <text id="Label" font-family="AndaleMono, Andale Mono" font-size="16" font-weight="normal" letter-spacing="-0.64" fill="#FFFFFF">
                <tspan x="16.3267187" y="23">SettingsComponent</tspan>
            </text>
        </g>
        <g id="Component" transform="translate(543.500000, 236.000000)">
            <rect id="Background" stroke="#254770" fill="#4A90E2" x="0" y="0" width="158" height="34" rx="4"></rect>
            <text id="Label" font-family="AndaleMono, Andale Mono" font-size="16" font-weight="normal" letter-spacing="-0.64" fill="#FFFFFF">
                <tspan x="16.2690625" y="23">TimerComponent</tspan>
            </text>
        </g>
        <g id="Component" transform="translate(38.000000, 270.000000)">
            <rect id="Background" stroke="#254770" fill="#4A90E2" x="0" y="0" width="167" height="34" rx="4"></rect>
            <text id="Label" font-family="AndaleMono, Andale Mono" font-size="16" font-weight="normal" letter-spacing="-0.64" fill="#FFFFFF">
                <tspan x="16.2882812" y="23">FooterComponent</tspan>
            </text>
        </g>
        <g id="Service" transform="translate(543.000000, 340.000000)">
            <rect id="Background" stroke="#254770" fill="#4A90E2" x="0" y="0" width="203" height="34" rx="4"></rect>
            <text id="Label" font-family="AndaleMono, Andale Mono" font-size="16" font-weight="normal" letter-spacing="-0.64" fill="#FFFFFF">
                <tspan x="16.3651562" y="23">NotificationService</tspan>
            </text>
        </g>
        <g id="Service" transform="translate(541.500000, 409.000000)">
            <rect id="Background" stroke="#254770" fill="#4A90E2" x="0" y="0" width="194" height="34" rx="4"></rect>
            <text id="Label" font-family="AndaleMono, Andale Mono" font-size="16" font-weight="normal" letter-spacing="-0.64" fill="#FFFFFF">
                <tspan x="16.3459375" y="23">PersistenceService</tspan>
            </text>
        </g>
        <g id="Service" transform="translate(542.500000, 289.000000)">
            <rect id="Background" stroke="#254770" fill="#4A90E2" x="0" y="0" width="140" height="34" rx="4"></rect>
            <text id="Label" font-family="AndaleMono, Andale Mono" font-size="16" font-weight="normal" letter-spacing="-0.64" fill="#FFFFFF">
                <tspan x="16.230625" y="23">TimerService</tspan>
            </text>
        </g>
        <path id="Line" d="M220.5,156.5 L234.5,163.5 L220.5,170.5 L220.5,164.5 L177.5,164.5 L177.5,162.5 L220.5,162.5 L220.5,156.5 Z" fill="#174239" fill-rule="nonzero"></path>
        <path id="Line" d="M530.057371,246.886414 L544,254 L529.943554,260.885951 L529.992,254.886 L482.49187,254.499967 L481.491903,254.491837 L481.508163,252.491903 L482.50813,252.500033 L530.008,252.886 L530.057371,246.886414 Z" fill="#174239" fill-rule="nonzero"></path>
        <path id="Line-8" d="M123.5,179.5 L123.5,206.5 L129.5,206.5 L122.5,220.5 L115.5,206.5 L121.5,206.5 L121.5,179.5 L123.5,179.5 Z" fill="#174239" fill-rule="nonzero"></path>
        <line x1="122.5" y1="253.5" x2="122.5" y2="269.5" id="Line-9" stroke="#254770" stroke-width="2" stroke-linecap="square"></line>
        <line x1="612.5" y1="270.5" x2="612.5" y2="287.5" id="Line-15" stroke="#254770" stroke-width="2" stroke-linecap="square"></line>
        <line x1="612.5" y1="323.5" x2="612.5" y2="340.5" id="Line-2" stroke="#254770" stroke-width="2" stroke-linecap="square"></line>
        <path id="Line-4" d="M527.5,486.5 L541.5,493.5 L527.5,500.5 L527.5,494.5 L507.5,494.5 L507.5,492.5 L527.5,492.5 L527.5,486.5 Z" fill="#174239" fill-rule="nonzero"></path>
        <path id="Line-5" d="M527.5,419.5 L541.5,426.5 L527.5,433.5 L527.5,427.5 L489.5,427.5 L489.5,425.5 L527.5,425.5 L527.5,419.5 Z" fill="#174239" fill-rule="nonzero"></path>
        <path id="Line-6" d="M323.5,179.5 L323.5,252.017 L337.519,252.258 L337.622752,246.259697 L351.5,253.5 L337.381409,260.257616 L337.484,254.258 L322.482761,253.999851 L321.5,253.982907 L321.5,179.5 L323.5,179.5 Z" fill="#174239" fill-rule="nonzero"></path>
        <path id="Line-7" d="M323.5,179.5 L323.5,492.018 L336.52,492.25 L336.627212,486.251156 L350.5,493.5 L336.377252,500.248924 L336.484,494.25 L322.482146,493.999841 L321.5,493.982302 L321.5,179.5 L323.5,179.5 Z" fill="#174239" fill-rule="nonzero"></path>
        <path id="Line-16" d="M411.5,269.5 L411.5,395.5 L417.5,395.5 L410.5,409.5 L403.5,395.5 L409.5,395.5 L409.5,269.5 L411.5,269.5 Z" fill="#174239" fill-rule="nonzero"></path>
        <path id="Line-10" d="M410.5,443.5 L417.5,457.5 L411.5,457.5 L411.5,477.5 L409.5,477.5 L409.5,457.5 L403.5,457.5 L410.5,443.5 Z" fill="#174239" fill-rule="nonzero"></path>
    </g>
</svg>